<svg width="156" height="44" viewBox="0 0 156 44" fill="none" xmlns="http://www.w3.org/2000/svg">
<path d="M64.5268 30.4207C62.4512 30.4207 60.7309 29.9813 59.3658 29.1024C58.0008 28.2236 57.0471 27.0362 56.5049 25.5403L60.7963 23.0439C61.5256 24.783 62.8158 25.6525 64.667 25.6525C66.2003 25.6525 66.967 25.213 66.967 24.3342C66.967 23.7545 66.5276 23.287 65.6487 22.9318C65.2747 22.7822 64.452 22.5297 63.1804 22.1744C61.3853 21.6509 59.9642 20.9216 58.9171 19.9866C57.8699 19.033 57.3463 17.7147 57.3463 16.0318C57.3463 14.218 57.9915 12.7501 59.2817 11.6282C60.5906 10.5062 62.2174 9.94524 64.1621 9.94524C65.8077 9.94524 67.2662 10.3286 68.5377 11.0952C69.8093 11.8619 70.7816 12.9745 71.4548 14.433L67.2475 16.9013C66.6304 15.4428 65.6113 14.7135 64.1902 14.7135C63.5918 14.7135 63.1337 14.8351 62.8158 15.0781C62.5166 15.3212 62.367 15.6298 62.367 16.0037C62.367 16.4338 62.5914 16.7985 63.0402 17.0976C63.5077 17.3968 64.4052 17.7428 65.7329 18.1354C66.6865 18.4159 67.4532 18.6777 68.0329 18.9208C68.6125 19.1639 69.2483 19.5192 69.9402 19.9866C70.632 20.4354 71.1462 21.0244 71.4828 21.7537C71.8194 22.4643 71.9877 23.3057 71.9877 24.2781C71.9877 26.2041 71.3052 27.7094 69.9402 28.7939C68.5751 29.8785 66.7707 30.4207 64.5268 30.4207ZM93.3068 18.7525V20.744C93.3068 23.6236 92.3999 25.961 90.5861 27.7561C88.791 29.5325 86.4536 30.4207 83.574 30.4207C80.5073 30.4207 77.983 29.439 76.0008 27.4756C74.0374 25.5122 73.0557 23.0907 73.0557 20.211C73.0557 17.3314 74.0374 14.9005 76.0008 12.9184C77.9643 10.9363 80.3951 9.94524 83.2935 9.94524C85.126 9.94524 86.7996 10.3566 88.3142 11.1794C89.8475 12.0021 91.0443 13.096 91.9044 14.4611L87.641 16.9013C87.2483 16.2842 86.6687 15.7887 85.902 15.4147C85.154 15.0407 84.3032 14.8538 83.3496 14.8538C81.7976 14.8538 80.526 15.3586 79.535 16.3684C78.5439 17.3781 78.0484 18.6684 78.0484 20.2391C78.0484 21.7537 78.5346 23.0346 79.5069 24.0817C80.498 25.1289 81.8817 25.6525 83.6581 25.6525C85.9394 25.6525 87.4447 24.7923 88.1739 23.072H83.4057V18.7525H93.3068ZM106.908 30L106.067 27.1671H99.5317L98.6902 30H93.2488L99.728 10.366H105.843L112.322 30H106.908ZM100.822 22.8476H104.777L102.785 16.172L100.822 22.8476ZM123.184 15.9757H127.784V29.439C127.784 30.561 127.569 31.552 127.139 32.4122C126.727 33.291 126.166 33.9829 125.456 34.4878C124.745 35.0114 123.96 35.3947 123.1 35.6378C122.258 35.8996 121.36 36.0305 120.407 36.0305C118.855 36.0305 117.471 35.7406 116.256 35.1609C115.04 34.5813 114.124 33.7305 113.507 32.6085L117.378 30.3646C118.051 31.4305 119.042 31.9634 120.351 31.9634C121.192 31.9634 121.875 31.7484 122.398 31.3183C122.922 30.8882 123.184 30.2618 123.184 29.439V28.0927C122.23 29.252 120.921 29.8317 119.257 29.8317C117.331 29.8317 115.732 29.1398 114.461 27.7561C113.208 26.3724 112.581 24.6895 112.581 22.7074C112.581 20.7253 113.208 19.0423 114.461 17.6586C115.732 16.2749 117.331 15.583 119.257 15.583C120.921 15.583 122.23 16.1627 123.184 17.322V15.9757ZM118.051 24.811C118.612 25.3533 119.332 25.6244 120.21 25.6244C121.089 25.6244 121.8 25.3533 122.342 24.811C122.903 24.25 123.184 23.5488 123.184 22.7074C123.184 21.8659 122.903 21.174 122.342 20.6318C121.8 20.0708 121.089 19.7903 120.21 19.7903C119.332 19.7903 118.612 20.0708 118.051 20.6318C117.508 21.174 117.237 21.8659 117.237 22.7074C117.237 23.5488 117.508 24.25 118.051 24.811ZM135.137 18.5842C135.399 17.668 135.922 16.9574 136.708 16.4525C137.493 15.9476 138.372 15.6952 139.344 15.6952V20.8562C138.278 20.6879 137.306 20.8842 136.427 21.4452C135.567 22.0061 135.137 22.9224 135.137 24.1939V30H130.481V15.9757H135.137V18.5842ZM147.568 30.3927C145.493 30.3927 143.726 29.6821 142.267 28.261C140.809 26.8212 140.079 25.0634 140.079 22.9878C140.079 20.9123 140.809 19.1639 142.267 17.7428C143.726 16.3029 145.493 15.583 147.568 15.583C149.663 15.583 151.43 16.3029 152.87 17.7428C154.328 19.1639 155.057 20.9123 155.057 22.9878C155.057 25.0634 154.328 26.8212 152.87 28.261C151.43 29.6821 149.663 30.3927 147.568 30.3927ZM147.568 25.9049C148.391 25.9049 149.064 25.6338 149.588 25.0915C150.13 24.5492 150.401 23.848 150.401 22.9878C150.401 22.1277 150.13 21.4265 149.588 20.8842C149.064 20.3419 148.391 20.0708 147.568 20.0708C146.764 20.0708 146.091 20.3419 145.549 20.8842C145.025 21.4265 144.764 22.1277 144.764 22.9878C144.764 23.848 145.025 24.5492 145.549 25.0915C146.091 25.6338 146.764 25.9049 147.568 25.9049Z" fill="white"/>
<path d="M0 11C0 4.92487 4.92487 0 11 0V0C17.0751 0 22 4.92487 22 11V11C22 17.0751 17.0751 22 11 22H0V11Z" fill="#27AE60"/>
<path d="M0 33C0 26.9249 4.92487 22 11 22V22C17.0751 22 22 26.9249 22 33V44H11C4.92487 44 0 39.0751 0 33V33Z" fill="#c9da30"/>
<path d="M22 33C22 26.9249 26.9249 22 33 22H44V33C44 39.0751 39.0751 44 33 44V44C26.9249 44 22 39.0751 22 33V33Z" fill="#27AE60"/>
<path d="M22 0H33C39.0751 0 44 4.92487 44 11V11C44 17.0751 39.0751 22 33 22V22C26.9249 22 22 17.0751 22 11V0Z" fill="#c9da30"/>
</svg>
